<svg width="28" height="22" viewBox="0 0 28 22" fill="none" xmlns="http://www.w3.org/2000/svg">
<path d="M25.5391 0.335938H2.46094C1.10567 0.335938 0 1.44041 0 2.79688V19.2031C0 20.555 1.10075 21.6641 2.46094 21.6641H25.5391C26.8909 21.6641 28 20.5633 28 19.2031V2.79688C28 1.445 26.8993 0.335938 25.5391 0.335938ZM25.1992 1.97656L14.0522 13.1237L2.8087 1.97656H25.1992ZM1.64062 18.8634V3.12877L9.54182 10.9622L1.64062 18.8634ZM2.80071 20.0234L10.7069 12.1173L13.4772 14.8638C13.7979 15.1817 14.3154 15.1807 14.6348 14.8613L17.3359 12.1601L25.1993 20.0234H2.80071ZM26.3594 18.8633L18.496 11L26.3594 3.13659V18.8633Z" fill="#4572B4"/>
</svg>
